<?xml version="1.0" encoding="UTF-8"?>
<svg xmlns="http://www.w3.org/2000/svg" viewBox="0 0 512 512" fill="none">

<defs>
  <linearGradient id="treasure_gem_ring-stroke" x1="88" y1="72" x2="424" y2="440" gradientUnits="userSpaceOnUse">
    <stop stop-color="#efe5ff"/>
    <stop offset="1" stop-color="#b79ced"/>
  </linearGradient>
  <filter id="treasure_gem_ring-shadow" x="20" y="20" width="472" height="472" color-interpolation-filters="sRGB">
    <feDropShadow dx="0" dy="16" stdDeviation="18" flood-color="rgba(82, 58, 126, 0.16)"/>
  </filter>
</defs>
<g filter="url(#treasure_gem_ring-shadow)">
  <circle cx="256" cy="256" r="220" stroke="url(#treasure_gem_ring-stroke)" stroke-width="18"/>
  <circle cx="256" cy="256" r="194" stroke="#e5dcff" stroke-width="8"/>
  <path d="m256 30 36 40-36 42-36-42 36-40Z" fill="#8f72e7"/>
  <path d="m256 80 18-20 18 20-18 20-18-20Z" fill="#ffffff"/>
  <path d="m256 482 36-40-36-42-36 42 36 40Z" fill="#8f72e7"/>
  <path d="m256 432 18 20 18-20-18-20-18 20Z" fill="#ffffff"/>
  <path d="m30 256 40-36 42 36-42 36-40-36Z" fill="#8f72e7"/>
  <path d="m80 256-20-18 20-18 20 18-20 18Z" fill="#ffffff"/>
  <path d="m482 256-40-36-42 36 42 36 40-36Z" fill="#8f72e7"/>
  <path d="m432 256 20-18-20-18-20 18 20 18Z" fill="#ffffff"/>
</g>

</svg>