<?xml version="1.0" encoding="UTF-8"?>
<svg xmlns="http://www.w3.org/2000/svg" viewBox="0 0 512 512" fill="none">

<circle cx="256" cy="256" r="220" stroke="#8f72e7" stroke-width="18"/>
<circle cx="256" cy="256" r="194" stroke="#e5dcff" stroke-width="8"/>
<path d="m256 30 36 40-36 42-36-42 36-40Z" fill="#8f72e7"/>
<path d="m256 80 18-20 18 20-18 20-18-20Z" fill="#ffffff"/>
<path d="m256 482 36-40-36-42-36 42 36 40Z" fill="#8f72e7"/>
<path d="m256 432 18 20 18-20-18-20-18 20Z" fill="#ffffff"/>
<path d="m30 256 40-36 42 36-42 36-40-36Z" fill="#8f72e7"/>
<path d="m80 256-20-18 20-18 20 18-20 18Z" fill="#ffffff"/>
<path d="m482 256-40-36-42 36 42 36 40-36Z" fill="#8f72e7"/>
<path d="m432 256 20-18-20-18-20 18 20 18Z" fill="#ffffff"/>

</svg>