<?xml version="1.0" encoding="UTF-8"?>
<svg xmlns="http://www.w3.org/2000/svg" viewBox="0 0 512 512" fill="none">

<circle cx="256" cy="256" r="214" stroke="#59b0f8" stroke-width="16"/>
<circle cx="256" cy="256" r="194" stroke="#dff6ff" stroke-width="10" stroke-dasharray="8 18"/>
<path d="m256 26 10 20 22 3-16 16 4 22-20-11-20 11 4-22-16-16 22-3 10-20Z" fill="#59b0f8"/>
<path d="m102 112 8 16 18 2-13 12 3 18-16-8-16 8 4-18-14-12 18-2 8-16Z" fill="#59b0f8"/>
<path d="m410 112 8 16 18 2-13 12 3 18-16-8-16 8 4-18-14-12 18-2 8-16Z" fill="#59b0f8"/>
<path d="m86 352 8 16 18 2-13 12 3 18-16-8-16 8 4-18-14-12 18-2 8-16Z" fill="#59b0f8"/>
<path d="m426 352 8 16 18 2-13 12 3 18-16-8-16 8 4-18-14-12 18-2 8-16Z" fill="#59b0f8"/>

</svg>