<?xml version="1.0" encoding="UTF-8"?>
<svg xmlns="http://www.w3.org/2000/svg" viewBox="0 0 512 512" fill="none">

<circle cx="256" cy="224" r="164" fill="#dcf7ff" opacity="0.28"/>
<circle cx="256" cy="236" r="152" fill="#ffffff" opacity="0.42"/>

<ellipse cx="256" cy="180" rx="118" ry="132" fill="#dff5ff"/>
<circle cx="256" cy="196" r="86" fill="#ffffff"/>
<rect x="174" y="300" width="164" height="100" rx="48" fill="#f6eefc"/>
<ellipse cx="220" cy="196" rx="10" ry="14" fill="#453d56"/>
<ellipse cx="292" cy="196" rx="10" ry="14" fill="#453d56"/>
<path d="M244 228c6 6 10 8 12 8s6-2 12-8" stroke="#ffcbdc" stroke-width="10" stroke-linecap="round"/>
<circle cx="182" cy="120" r="14" fill="#5caaf5"/>
<circle cx="330" cy="120" r="14" fill="#5caaf5"/>


<circle cx="164" cy="124" r="10" fill="#ffffff" opacity="0.95"/>
<circle cx="350" cy="150" r="9" fill="#ffffff" opacity="0.95"/>
<circle cx="120" cy="276" r="7" fill="#bdefff" opacity="0.95"/>
<circle cx="392" cy="282" r="7" fill="#bdefff" opacity="0.95"/>
<circle cx="314" cy="336" r="7" fill="#ffffff" opacity="0.92"/>
<rect x="304" y="338" width="64" height="48" rx="22" fill="#ffffff" opacity="0.82"/>
<circle cx="336" cy="362" r="9" fill="#5caaf5"/>


</svg>