<?xml version="1.0" encoding="UTF-8"?>
<svg xmlns="http://www.w3.org/2000/svg" viewBox="0 0 512 512" fill="none">

<circle cx="256" cy="224" r="164" fill="#e7ddff" opacity="0.28"/>
<circle cx="256" cy="236" r="152" fill="#ffffff" opacity="0.42"/>

<ellipse cx="170" cy="206" rx="42" ry="104" fill="#eef8ff"/>
<ellipse cx="342" cy="206" rx="42" ry="104" fill="#eef8ff"/>
<circle cx="256" cy="188" r="102" fill="#fffefe"/>
<rect x="180" y="292" width="152" height="108" rx="50" fill="#ede3ff"/>
<ellipse cx="224" cy="188" rx="10" ry="14" fill="#404354"/>
<ellipse cx="288" cy="188" rx="10" ry="14" fill="#404354"/>
<ellipse cx="256" cy="222" rx="18" ry="12" fill="#ffd5dd"/>
<circle cx="206" cy="220" r="12" fill="#ffe2ea"/>
<circle cx="306" cy="220" r="12" fill="#ffe2ea"/>
<circle cx="182" cy="146" r="10" fill="#8f72e7"/>
<circle cx="330" cy="150" r="10" fill="#8f72e7"/>


<rect x="188" y="306" width="136" height="12" rx="6" fill="#e7ddff"/>
<polygon points="256,294 280,320 256,346 232,320" fill="#8f72e7"/>
<circle cx="348" cy="268" r="14" fill="none" stroke="#8f72e7" stroke-width="8"/>
<rect x="358" y="264" width="34" height="8" rx="4" fill="#8f72e7"/>
<circle cx="166" cy="122" r="8" fill="#ffffff" opacity="0.9"/>
<circle cx="354" cy="132" r="8" fill="#ffffff" opacity="0.9"/>


</svg>